<?xml version="1.0" encoding="iso-8859-1"?>
<!-- Generator: Adobe Illustrator 19.0.0, SVG Export Plug-In . SVG Version: 6.00 Build 0)  -->
<svg version="1.1" id="Layer_1" xmlns="http://www.w3.org/2000/svg" xmlns:xlink="http://www.w3.org/1999/xlink" x="0px" y="0px"
	 viewBox="0 0 505 505" style="enable-background:new 0 0 505 505;" xml:space="preserve">
<circle style="fill:#54C0EB;" cx="252.5" cy="252.5" r="252.5"/>
<path style="fill:#FFFFFF;" d="M79.9,176.3v200c0,1.6,1.3,2.8,2.8,2.8h339.5c1.6,0,2.8-1.3,2.8-2.8v-200L79.9,176.3L79.9,176.3z"/>
<path style="fill:#324A5E;" d="M425.1,177.7v-34.2c0-9.7-7.9-17.6-17.6-17.6h-310c-9.7,0-17.6,7.9-17.6,17.6v34.2H425.1z"/>
<path style="fill:#FFFFFF;" d="M284.7,164.3H115.4c-6.9,0-12.5-5.6-12.5-12.5l0,0c0-6.9,5.6-12.5,12.5-12.5h169.3
	c6.9,0,12.5,5.6,12.5,12.5l0,0C297.2,158.7,291.6,164.3,284.7,164.3z"/>
<circle style="fill:#FF7058;" cx="389.3" cy="152" r="12.8"/>
<circle style="fill:#ACB3BA;" cx="352.5" cy="152" r="12.8"/>
<g>
	<path style="fill:#324A5E;" d="M116.3,156.4h-2.5l-3-8.7h2.5l1.7,5.3l1.7-5.3h2.4l1.7,5.3l1.7-5.3h2.5l-3,8.7h-2.5l-1.6-4.8
		L116.3,156.4z"/>
	<path style="fill:#324A5E;" d="M131,156.4h-2.5l-3-8.7h2.5l1.7,5.3l1.7-5.3h2.4l1.7,5.3l1.7-5.3h2.5l-3,8.7h-2.5l-1.6-4.8
		L131,156.4z"/>
	<path style="fill:#324A5E;" d="M145.6,156.4h-2.5l-3-8.7h2.5l1.7,5.3l1.7-5.3h2.4l1.7,5.3l1.7-5.3h2.5l-3,8.7h-2.5l-1.6-4.8
		L145.6,156.4z"/>
</g>
<g>
	<rect x="188.4" y="306.3" style="fill:#4CDBC4;" width="19.5" height="34.6"/>
	<rect x="224.6" y="276.4" style="fill:#4CDBC4;" width="19.5" height="64.5"/>
	<rect x="260.9" y="289.4" style="fill:#4CDBC4;" width="19.5" height="51.4"/>
	<rect x="297.1" y="258.9" style="fill:#4CDBC4;" width="19.5" height="82"/>
</g>
<g>
</g>
<g>
</g>
<g>
</g>
<g>
</g>
<g>
</g>
<g>
</g>
<g>
</g>
<g>
</g>
<g>
</g>
<g>
</g>
<g>
</g>
<g>
</g>
<g>
</g>
<g>
</g>
<g>
</g>
</svg>
